<svg width="24" height="18" viewBox="0 0 24 18" fill="none" xmlns="http://www.w3.org/2000/svg">
<path d="M3.41304 18H20.913C22.8696 18 24 16.9135 24 14.7615V3.22809C24 1.08648 22.8587 0 20.587 0H3.08696C1.13043 0 0 1.07603 0 3.22809V14.7615C0 16.924 1.1413 18 3.41304 18ZM10.7065 9.52757L2.5 1.74463C2.73913 1.65061 3.02174 1.59837 3.34783 1.59837H20.6522C20.9891 1.59837 21.2826 1.65061 21.5217 1.75508L13.337 9.52757C12.8696 9.97678 12.4457 10.1753 12.0217 10.1753C11.587 10.1753 11.163 9.96634 10.7065 9.52757ZM1.66304 14.7615V3.22809C1.66304 3.14452 1.66304 3.1863 1.66304 3.11317L7.91304 9.01567L1.67391 14.9391C1.66304 14.8868 1.66304 14.8241 1.66304 14.7615ZM22.337 3.23854V14.7719C22.337 14.8137 22.337 14.8659 22.337 14.9077L16.1304 9.01567L22.337 3.14452C22.337 3.23854 22.337 3.23854 22.337 3.23854ZM3.34783 16.4016C3.04348 16.4016 2.78261 16.3598 2.55435 16.2658L9.05435 10.0917L9.76087 10.7603C10.5217 11.4811 11.25 11.7841 12.0217 11.7841C12.7826 11.7841 13.5217 11.4811 14.2826 10.7603L14.9891 10.0917L21.4783 16.2554C21.2391 16.3598 20.9674 16.4016 20.6522 16.4016H3.34783Z" fill="#212121"/>
</svg>
