<svg width="28" height="28" viewBox="0 0 28 28" fill="none" xmlns="http://www.w3.org/2000/svg">
<path d="M25.6317 21.3852C25.6317 21.8052 25.5383 22.2368 25.34 22.6568C25.1417 23.0768 24.885 23.4735 24.5467 23.8468C23.975 24.4768 23.345 24.9318 22.6333 25.2235C21.9333 25.5152 21.175 25.6668 20.3583 25.6668C19.1683 25.6668 17.8967 25.3868 16.555 24.8152C15.2133 24.2435 13.8717 23.4735 12.5417 22.5052C11.2 21.5252 9.92833 20.4402 8.71499 19.2385C7.51333 18.0252 6.42833 16.7535 5.45999 15.4235C4.50333 14.0935 3.73333 12.7635 3.17333 11.4452C2.61333 10.1152 2.33333 8.8435 2.33333 7.63016C2.33333 6.83683 2.47333 6.0785 2.75333 5.3785C3.03333 4.66683 3.47666 4.0135 4.09499 3.43016C4.84166 2.69516 5.65833 2.3335 6.52166 2.3335C6.84833 2.3335 7.17499 2.4035 7.46666 2.5435C7.76999 2.6835 8.03833 2.8935 8.24833 3.19683L10.955 7.01183C11.165 7.3035 11.3167 7.57183 11.4217 7.8285C11.5267 8.0735 11.585 8.3185 11.585 8.54016C11.585 8.82016 11.5033 9.10016 11.34 9.3685C11.1883 9.63683 10.9667 9.91683 10.6867 10.1968L9.79999 11.1185C9.67166 11.2468 9.61333 11.3985 9.61333 11.5852C9.61333 11.6785 9.625 11.7602 9.64833 11.8535C9.68333 11.9468 9.71833 12.0168 9.74166 12.0868C9.95166 12.4718 10.3133 12.9735 10.8267 13.5802C11.3517 14.1868 11.9117 14.8052 12.5183 15.4235C13.1483 16.0418 13.755 16.6135 14.3733 17.1385C14.98 17.6518 15.4817 18.0018 15.8783 18.2118C15.9367 18.2352 16.0067 18.2702 16.0883 18.3052C16.1817 18.3402 16.275 18.3518 16.38 18.3518C16.5783 18.3518 16.73 18.2818 16.8583 18.1535L17.745 17.2785C18.0367 16.9868 18.3167 16.7652 18.585 16.6252C18.8533 16.4618 19.1217 16.3802 19.4133 16.3802C19.635 16.3802 19.8683 16.4268 20.125 16.5318C20.3817 16.6368 20.65 16.7885 20.9417 16.9868L24.8033 19.7285C25.1067 19.9385 25.3167 20.1835 25.445 20.4752C25.5617 20.7668 25.6317 21.0585 25.6317 21.3852Z" stroke="#171717" stroke-width="1.5" stroke-miterlimit="10"/>
</svg>
