<?xml version="1.0" encoding="UTF-8"?><svg id="Layer_5" xmlns="http://www.w3.org/2000/svg" viewBox="0 0 1696.519 492.544"><path d="m115.771,206.408c-1.01,0-1.89.3-2.63.9-1.21,1.03-2.48,2.08-3.81,3.15-1.05.84-2.13,1.7-3.24,2.56-2.54,1.96-5.17,3.84-7.89,5.64-2.68,1.84-5.25,3.38-7.72,4.6-2.47,1.22-4.44,1.83-5.92,1.83-1.33,0-2-.76-2-2.28,0-1.11.24-2.36.72-3.77.49-1.41.98-2.64,1.49-3.7,1.98-4.25,4.12-8.76,6.4-13.53,2.29-4.78,5.11-10.7,8.48-17.75,3.09-6.42,5.92-12.18,8.48-17.3,2.56-5.12,4.67-9.25,6.33-12.39.6-1.06,1.09-2.05,1.49-2.98.39-.92.59-1.8.59-2.63,0-2.12-.89-3.58-2.67-4.39-1.78-.81-3.72-.87-5.85-.17-2.12.69-3.71,2.19-4.77,4.49l-20.97,44.64c-1.38,2.95-2.91,6.2-4.57,9.76-1.66,3.55-3.3,7.13-4.91,10.72-.92,1.99-1.72,4.17-2.39,6.54-.67,2.38-1,4.7-1,6.96,0,2.72.7,5.03,2.11,6.92,1.41,1.89,4,2.83,7.78,2.83,2.77,0,5.63-.56,8.59-1.69,2.95-1.13,5.9-2.62,8.85-4.46,3-1.89,5.99-4.05,8.97-6.47.34-.28.67-.55,1.01-.84,2.63-2.17,5.26-4.47,7.88-6.88,1.61-1.15,2.74-2.33,3.39-3.53.64-1.2.97-2.28.97-3.25,0-2.35-1.06-3.53-3.19-3.53Z" fill="#1d1100" stroke-width="0"/><path d="m185.361,209.138c-.63-.9-1.4-1.35-2.32-1.35-.47,0-.95.14-1.44.42-.23.12-.47.29-.71.48-1.43,1.48-2.83,2.87-4.22,4.19-1.38,1.31-2.72,2.55-4.01,3.7-2.4,2.12-4.73,3.96-6.99,5.5-2.26,1.55-4.06,2.32-5.4,2.32-1.11,0-1.89-.45-2.35-1.35-.46-.9-.69-2.04-.69-3.42,0-1.62.33-3.67,1-6.16s1.49-5.08,2.46-7.75c.97-2.77,1.88-5.28,2.73-7.55.85-2.26,1.44-4.03,1.76-5.32.05-.14.07-.4.07-.77,0-1.15-.55-2.21-1.66-3.18-1.1-.97-2.54-1.45-4.29-1.45-.55,0-1.21.12-1.97.38-.76.25-1.49.54-2.18.86l-2.42,1.18c-.46-.46-.96-.89-1.49-1.28-.53-.39-1.1-.77-1.7-1.14-1.06-.6-2.35-1.16-3.87-1.66-1.52-.51-3.3-.76-5.33-.76-5.67,0-10.67,1.4-14.98,4.22-4.32,2.81-7.86,6.34-10.62,10.58-2.33,3.5-4.14,7.04-5.41,10.63-.25.68-.48,1.36-.68,2.04-1.3,4.29-1.94,7.86-1.94,10.73,0,.12,0,.25.01.37.05,3.24.87,5.83,2.45,7.79,1.63,2.03,3.54,3.48,5.7,4.36,2.17.88,4.04,1.31,5.61,1.31,3.14,0,6.2-.91,9.2-2.73s5.79-4.08,8.38-6.78c2.58-2.7,4.82-5.32,6.71-7.85-.6,1.61-.9,3.46-.9,5.53,0,2.86.74,5.55,2.21,8.06,1.48,2.52,3.83,3.77,7.06,3.77,2.59,0,5.49-.88,8.72-2.66,3.23-1.77,6.37-3.91,9.41-6.4.68-.56,1.34-1.11,1.96-1.64,2.5-2.1,4.52-3.94,6.07-5.49,1.94-1.94,3.83-3.76,5.68-5.47.87-.87,1.31-1.96,1.31-3.25,0-1.1-.31-2.11-.93-3.01Zm-41.84-1.28c-1.33,2.26-3.16,4.78-5.46,7.54-2.08,2.54-4.24,4.76-6.47,6.65-2.24,1.89-4.1,2.84-5.57,2.84-2.54,0-4.15-.97-4.81-2.91-.67-1.94-1.01-3.81-1.01-5.61,0-3.09.81-6.07,2.43-8.96,1.61-2.88,3.7-5.25,6.26-7.09,2.56-1.85,5.27-2.77,8.13-2.77,1.61,0,3.44.52,5.47,1.56,2.03,1.04,3.04,2.43,3.04,4.18,0,.79-.67,2.31-2.01,4.57Z" fill="#1d1100" stroke-width="0"/><path d="m242.931,212.908c-2.88,2.12-6.04,4.17-9.48,6.16-3.44,1.98-6.88,3.62-10.34,4.91-.6.42-1.11.66-1.53.73-.41.07-.78.1-1.1.1-.97,0-1.46-.46-1.46-1.38,0-.97.3-1.82.9-2.56.74-1.34,1.79-3.04,3.15-5.09,1.36-2.05,2.83-4.44,4.4-7.16,1.47-2.58,2.74-5.27,3.8-8.06,1.06-2.79,1.59-5.39,1.59-7.79,0-2.81-.82-4.81-2.45-5.98-1.64-1.18-3.68-1.77-6.13-1.77-2.77,0-5.79.58-9.06,1.73-3.28,1.15-6.32,2.6-9.14,4.33-2.81,1.73-4.93,3.49-6.36,5.29.36-.78.62-1.52.76-2.22.14-.69.2-1.33.2-1.93,0-1.57-.43-2.76-1.31-3.57-.88-.8-1.87-1.21-2.98-1.21-1.33,0-2.69.49-4.08,1.46-1.38.96-2.54,2.44-3.46,4.42-.88,1.9-2.21,4.65-4.01,8.27-1,2.01-2.08,4.21-3.24,6.62-.94,1.94-1.94,4.02-2.99,6.22-1.85,3.78-3.46,7.33-4.84,10.62-.19.46-.37.89-.54,1.31-1.03,2.59-1.54,4.41-1.54,5.44,0,1.48.46,2.72,1.38,3.74.93,1.01,2.19,1.52,3.81,1.52,2.08,0,3.77-.88,5.09-2.63,1.31-1.75,2.46-3.81,3.46-6.16.99-2.35,2.01-4.4,3.08-6.16,1.47-2.3,3.18-4.88,5.12-7.71,1.93-2.84,4.07-5.56,6.4-8.17,2.33-2.6,4.82-4.76,7.47-6.47,2.65-1.71,5.43-2.56,8.34-2.56,1.57,0,2.35.83,2.35,2.49,0,1.11-.62,2.79-1.87,5.05-1.24,2.26-2.65,4.69-4.22,7.27-1.57,2.68-3.02,5.39-4.36,8.13-1.33,2.75-2.07,5.16-2.21,7.23-.05.37-.08.71-.1,1.01-.03.3-.04.61-.04.93,0,5.17,2.35,7.75,7.06,7.75,1.66,0,3.67-.37,6.02-1.11,4.52-1.29,8.42-2.76,11.69-4.43,3.04-1.54,5.92-3.24,8.66-5.13,1.46-2.81,2.88-5.6,4.25-8.36s2.61-5.45,3.73-8.08c-1.15.92-2.44,1.91-3.87,2.96Z" fill="#1d1100" stroke-width="0"/><path d="m225.321,271.478c-1.842,0-3.404-.387-4.644-1.148-1.393-.863-2.097-2.441-2.097-4.691,0-1.558.336-3.205,1-4.896.151-.408.342-.83.542-1.264.974-2.036,1.8-3.811,2.488-5.325.661-1.232,1.302-2.404,1.943-3.576,2.619-4.828,5.31-9.74,8.061-14.732,1.825-3.312,3.614-6.649,5.319-9.919,1.486-2.862,2.914-5.669,4.241-8.343,1.341-2.701,2.588-5.402,3.706-8.027,1.314-3.103,2.459-6.109,3.401-8.935.362-.825.818-1.917,1.414-3.356.601-1.452,1.361-3.01,2.259-4.632.921-1.641,1.95-3.061,3.062-4.226,1.262-1.308,2.645-1.969,4.114-1.969,5.446,0,6.26,3.271,6.26,5.22,0,.368-.049,1.113-.468,3.335-.006.033-.012.065-.019.097,1.559-1.314,3.227-2.625,4.983-3.918,2.752-2.034,5.692-3.75,8.737-5.099,3.094-1.364,6.197-2.055,9.226-2.055h0c3.192,0,6.227.774,9.02,2.302,2.985,1.627,4.5,4.1,4.5,7.348,0,2.928-1.234,6.182-3.669,9.672-2.331,3.352-5.053,6.662-8.088,9.838-1.852,1.947-3.605,3.714-5.359,5.4-1.93,1.854-3.362,3.264-4.508,4.438-1.222,1.242-1.542,1.763-1.622,1.923.025.312.218.739,1.696.739.921,0,3.556-.755,10.851-5.812,5.126-3.553,12.125-8.64,20.801-15.118l1.197,1.602c-8.695,6.494-15.713,11.595-20.859,15.161-7.975,5.528-10.662,6.168-11.989,6.168-3.34,0-3.7-2.007-3.7-2.87l.008-.123c.062-.5.37-1.219,2.189-3.068,1.159-1.187,2.605-2.611,4.55-4.479,1.732-1.666,3.466-3.412,5.299-5.339,2.965-3.104,5.621-6.333,7.894-9.602,2.197-3.149,3.311-6.018,3.311-8.529,0-2.495-1.131-4.324-3.458-5.592-4.903-2.682-10.7-2.721-16.479-.173-2.909,1.289-5.723,2.931-8.358,4.879-2.713,1.995-5.201,4.03-7.397,6.051l-1.554-1.217c.188-.341.483-1.137.834-2.994.357-1.897.433-2.66.433-2.965,0-1.499-.484-3.22-4.26-3.22-.919,0-1.792.443-2.671,1.354-.992,1.04-1.922,2.325-2.758,3.815-.858,1.552-1.586,3.042-2.158,4.424-.604,1.46-1.067,2.568-1.4,3.314-.923,2.784-2.086,5.84-3.422,8.993-1.134,2.662-2.397,5.398-3.756,8.134-1.333,2.685-2.766,5.503-4.258,8.377-1.713,3.284-3.51,6.636-5.342,9.961-2.749,4.988-5.438,9.896-8.057,14.725-.642,1.172-1.28,2.34-1.908,3.507-.663,1.465-1.495,3.251-2.469,5.288-.173.374-.344.751-.485,1.128-.577,1.473-.867,2.874-.867,4.181,0,1.533.375,2.511,1.147,2.99.916.562,2.126.85,3.593.85,2.313,0,4.132-.763,5.56-2.333.926-1.02,1.728-2.148,2.382-3.354.438-.776.816-1.594,1.162-2.516.175-.548.701-1.82,1.641-3.96.511-1.171,1.083-2.456,1.725-3.871.491-1.081,1.013-2.222,1.572-3.444,1.287-2.852,2.386-5.3,3.285-7.328.915-2.062,1.524-3.373,1.862-4.005.283-.517.798-1.498,1.552-2.967.764-1.476,1.676-3.221,2.738-5.205l4.71-8.79c1.487-2.59,3.322-5.346,5.471-8.217,2.192-2.939,4.747-5.802,7.593-8.506,2.753-2.703,5.693-4.964,8.729-6.712,3.114-1.788,6.158-2.693,9.049-2.693,3.463,0,3.979,1.754,3.979,2.8,0,1.668-1.204,3.772-3.789,6.622-2.435,2.662-5.076,5.418-7.854,8.195-2.94,2.941-5.656,5.891-8.071,8.766-2.342,2.779-3.652,5.109-3.895,6.93l-.062.481v.486c0,1.925.795,3.397,2.43,4.501,1.737,1.174,4.284,1.769,7.57,1.769,3.6,0,7.023-.585,10.177-1.739,3.168-1.159,6.501-2.85,9.905-5.023,3.329-2.095,6.981-4.705,10.859-7.762.652-.522,1.326-1.049,2.009-1.583l.294-.23,1.232,1.576-.295.23c-.676.528-1.344,1.05-1.996,1.572-3.939,3.105-7.649,5.757-11.033,7.886-3.52,2.248-6.983,4.004-10.288,5.213-3.375,1.234-7.03,1.86-10.864,1.86-3.692,0-6.615-.71-8.689-2.11-2.196-1.484-3.311-3.556-3.311-6.159l.008-.677.07-.55c.299-2.24,1.721-4.842,4.348-7.958,2.45-2.918,5.206-5.911,8.188-8.893,2.756-2.757,5.377-5.491,7.789-8.128,2.843-3.133,3.268-4.65,3.268-5.275,0-.198,0-.8-1.979-.8-2.536,0-5.245.817-8.052,2.427-2.889,1.663-5.694,3.821-8.338,6.417-2.774,2.638-5.254,5.414-7.379,8.264-2.101,2.808-3.892,5.496-5.324,7.991l-4.695,8.765c-1.059,1.975-1.965,3.71-2.725,5.177-.764,1.489-1.288,2.486-1.57,3.002-.306.57-.91,1.874-1.793,3.863-.901,2.032-2.002,4.484-3.293,7.346-.562,1.225-1.081,2.363-1.571,3.442-.637,1.405-1.205,2.681-1.713,3.847-.888,2.021-1.421,3.303-1.585,3.815-.399,1.066-.819,1.977-1.302,2.827-.722,1.331-1.616,2.591-2.65,3.729-1.804,1.983-4.172,2.988-7.04,2.988Z" fill="#1d1100" stroke-width="0"/><path d="m354.801,238.058c-3.589,0-6.254-1.435-7.922-4.263-1.565-2.665-2.358-5.547-2.358-8.567,0-.55.021-1.087.062-1.609-1.268,1.512-2.654,3.057-4.148,4.62-2.654,2.768-5.538,5.103-8.574,6.944-3.145,1.907-6.418,2.875-9.729,2.875-1.676,0-3.686-.465-5.973-1.383-2.32-.94-4.376-2.507-6.115-4.658-1.78-2.204-2.683-5.164-2.683-8.799,0-.886.057-1.812.167-2.757l1.986.232c-.102.867-.153,1.717-.153,2.524,0,3.165.753,5.703,2.238,7.542,1.522,1.884,3.309,3.25,5.308,4.061,2.046.82,3.805,1.237,5.225,1.237,2.939,0,5.864-.87,8.691-2.585,2.887-1.751,5.635-3.978,8.167-6.617,2.554-2.674,4.784-5.286,6.63-7.765l1.739.944c-.556,1.5-.838,3.247-.838,5.192,0,2.659.7,5.2,2.082,7.553,1.3,2.205,3.328,3.277,6.198,3.277,2.394,0,5.166-.854,8.239-2.537,3.164-1.744,6.279-3.866,9.257-6.307,1.002-.823,1.937-1.608,2.811-2.363l1.307,1.514c-.886.765-1.832,1.56-2.849,2.396-3.072,2.519-6.289,4.71-9.562,6.514-3.373,1.848-6.469,2.784-9.202,2.784Zm-27.13-12.181c-3.734,0-5.191-1.948-5.756-3.583-.699-2.017-1.055-4.011-1.055-5.927,0-3.265.857-6.444,2.549-9.45,1.664-2.987,3.867-5.484,6.545-7.42,2.725-1.958,5.656-2.949,8.717-2.949,1.782,0,3.775.559,5.926,1.66,2.385,1.222,3.594,2.931,3.594,5.08,0,.625-.223,1.831-2.149,5.08-1.361,2.296-3.233,4.877-5.563,7.671-2.075,2.547-4.296,4.826-6.593,6.764-2.438,2.068-4.472,3.075-6.214,3.075Zm11-27.33c-2.633,0-5.172.865-7.547,2.572-2.438,1.762-4.447,4.042-5.971,6.774-1.522,2.707-2.293,5.557-2.293,8.474,0,1.692.317,3.466.944,5.272.332.961,1.094,2.237,3.866,2.237.846,0,2.387-.451,4.923-2.603,2.204-1.859,4.337-4.049,6.341-6.509,2.27-2.721,4.079-5.214,5.386-7.418,1.735-2.927,1.87-3.848,1.87-4.061,0-1.357-.819-2.436-2.506-3.3-1.865-.956-3.552-1.44-5.014-1.44Zm23.26,26.85c-1.493,0-2.617-.655-3.251-1.895-.537-1.053-.799-2.323-.799-3.886,0-1.709.348-3.869,1.034-6.42.673-2.499,1.509-5.134,2.485-7.831.945-2.698,1.866-5.242,2.734-7.551.84-2.208,1.424-3.962,1.735-5.219.009-.031.04-.162.04-.519,0-.847-.443-1.664-1.316-2.426-.935-.816-2.123-1.213-3.633-1.213-.438,0-.985.108-1.672.331-.693.237-1.376.51-2.072.828l-3.04,1.47-.503-.502c-.393-.393-.847-.782-1.386-1.189-.527-.387-1.058-.745-1.612-1.086-.956-.541-2.202-1.073-3.672-1.563-1.401-.47-3.084-.708-5.003-.708-5.446,0-10.306,1.365-14.445,4.058-4.171,2.729-7.646,6.194-10.328,10.298-1.242,1.865-2.338,3.752-3.261,5.617l-1.793-.887c.961-1.941,2.1-3.904,3.385-5.832,2.828-4.329,6.498-7.99,10.904-10.872,4.472-2.909,9.698-4.383,15.538-4.383,2.135,0,4.032.273,5.638.812,1.612.538,2.938,1.106,4.055,1.738.632.389,1.207.776,1.789,1.204.4.302.758.594,1.084.886l1.799-.87c.777-.355,1.521-.652,2.292-.916.903-.293,1.652-.434,2.304-.434,1.987,0,3.651.574,4.948,1.707,1.327,1.159,2.001,2.482,2.001,3.933,0,.442-.035.781-.107,1.035-.322,1.3-.931,3.132-1.798,5.411-.861,2.29-1.776,4.82-2.721,7.514-.961,2.654-1.779,5.235-2.438,7.68-.641,2.382-.966,4.367-.966,5.9,0,1.222.195,2.223.58,2.976.191.375.531.805,1.47.805.765,0,2.223-.372,4.826-2.146,2.23-1.529,4.55-3.354,6.892-5.423,1.431-1.287,2.739-2.495,3.993-3.686.695-.656,1.398-1.339,2.102-2.042l1.414,1.414c-.717.717-1.434,1.413-2.142,2.08-1.264,1.201-2.585,2.421-4.036,3.726-2.41,2.129-4.795,4.005-7.094,5.581-2.465,1.681-4.412,2.496-5.955,2.496Z" fill="#1d1100" stroke-width="0"/><path d="m385.591,238.058c-4.101,0-6.988-1.092-8.584-3.244-1.53-2.052-2.307-4.581-2.307-7.516,0-.584.021-1.179.063-1.762l1.994.143c-.038.536-.058,1.082-.058,1.619,0,2.529.625,4.597,1.912,6.322,1.199,1.618,3.547,2.438,6.979,2.438,2.625,0,5.392-.55,8.223-1.634,2.901-1.107,5.823-2.579,8.686-4.374,2.946-1.855,5.928-4.009,8.859-6.397,2.891-2.347,5.87-4.928,8.855-7.671l.092-.075c1.486-1.07,2.527-2.145,3.095-3.194.563-1.056.851-1.994.851-2.784,0-2.224-1.053-2.53-2.19-2.53-.784,0-1.438.222-2,.677-2.145,1.829-4.533,3.761-7.079,5.726-2.536,1.965-5.212,3.877-7.95,5.683-2.663,1.845-5.3,3.418-7.818,4.661-2.623,1.308-4.705,1.943-6.362,1.943-1.906,0-3-1.195-3-3.279,0-1.214.26-2.594.773-4.103.535-1.529,1.036-2.773,1.535-3.812,1.976-4.232,4.117-8.744,6.399-13.527l8.479-17.75c3.322-6.893,6.099-12.557,8.489-17.318,2.543-5.087,4.676-9.263,6.34-12.409.58-1.026,1.061-1.991,1.442-2.893.34-.782.511-1.532.511-2.24,0-1.733-.66-2.842-2.076-3.491-1.557-.699-3.234-.743-5.124-.128-1.859.605-3.224,1.903-4.171,3.966l-20.974,44.638c-1.39,2.959-2.91,6.208-4.568,9.758-1.198,2.566-2.378,5.132-3.546,7.719l-1.822-.824c1.172-2.593,2.354-5.167,3.556-7.741,1.66-3.551,3.181-6.801,4.57-9.762l20.97-44.63c1.174-2.556,2.98-4.249,5.366-5.025,2.352-.766,4.561-.695,6.569.208,2.128.974,3.25,2.81,3.25,5.312,0,.984-.227,2.003-.673,3.029-.408.963-.923,1.997-1.526,3.063-1.643,3.108-3.769,7.27-6.306,12.345-2.387,4.753-5.158,10.407-8.475,17.287l-8.478,17.747c-2.278,4.776-4.418,9.284-6.396,13.521-.472.98-.945,2.157-1.453,3.607-.438,1.293-.663,2.456-.663,3.45,0,1.188.414,1.279,1,1.279,1.321,0,3.163-.584,5.474-1.735,2.434-1.201,4.985-2.724,7.587-4.526,2.716-1.79,5.349-3.673,7.847-5.607,2.522-1.946,4.885-3.857,7.024-5.681.938-.762,2.034-1.14,3.278-1.14,2.663,0,4.19,1.651,4.19,4.53,0,1.122-.366,2.378-1.089,3.73-.719,1.328-1.908,2.582-3.639,3.836-3.001,2.756-5.996,5.35-8.903,7.71-2.992,2.438-6.04,4.64-9.057,6.539-2.975,1.865-6.014,3.395-9.036,4.549-3.06,1.171-6.066,1.766-8.937,1.766Z" fill="#1d1100" stroke-width="0"/><path d="m81.42,149.552c-3.35-4.68-7.71-8.19-13.08-10.52-5.38-2.32-11.15-3.49-17.34-3.49-4.93,0-9.63.54-14.08,1.63-4.45,1.08-8.57,2.52-12.35,4.32-3.78,1.8-7.19,3.87-10.21,6.19-3.02,2.34-5.59,4.77-7.71,7.31-4.43,5.3-6.65,10.15-6.65,14.53,0,4.43,2.22,6.64,6.65,6.64,2.39,0,4.3-.74,5.7-2.21,1.41-1.48,2.68-3.36,3.81-5.64,1.13-2.29,2.43-4.63,3.91-7.03,1.11-1.84,2.45-3.66,4.01-5.46,1.57-1.8,3.53-3.39,5.89-4.78,2.3-1.38,5.08-2.5,8.34-3.36,3.25-.85,7.13-1.28,11.66-1.28,4.38,0,8.09.96,11.14,2.88,3.04,1.91,5.36,4.45,6.95,7.61,1.59,3.16,2.39,6.61,2.39,10.34,0,4.11-1.43,7.59-4.29,10.45-2.86,2.86-6.53,5.09-11,6.68-4.48,1.59-9.18,2.57-14.12,2.94,2.17-4.1,3.62-7.42,4.36-9.96.78-2.63,1.18-4.66,1.18-6.09,0-1.52-.35-2.57-1.04-3.15-.69-.58-1.46-.87-2.29-.87-1.29,0-2.8.5-4.53,1.49-1.73.99-3.66,3.34-5.78,7.03l-22.56,41.54,14.27,7.69c.45-.81.88-1.65,1.3-2.52,2.31-4.85,4.29-9.41,5.95-13.7,1.67-4.3,3.12-7.82,4.36-10.59,1.2.18,2.41.3,3.64.34,1.22.05,2.43.07,3.63.07,11.81,0,21.82-2.81,30.03-8.44,3.97-2.72,7.11-6.02,9.42-9.9,2.3-3.87,3.46-8.23,3.46-13.08,0-7.05-1.68-12.92-5.02-17.61Z" fill="#1d1100" stroke-width="0"/><polygon points="9.163 221.262 9.053 237.072 22.203 228.292 9.163 221.262" fill="#1d1100" stroke-width="0"/></svg>