<svg width="70" height="65" viewBox="0 0 70 65" fill="none" xmlns="http://www.w3.org/2000/svg">
<path d="M28.0569 12.6422C30.6384 4.96239 31.9291 1.1225 34.1541 0.643801C34.7087 0.5245 35.2822 0.5245 35.8368 0.643801C38.0618 1.1225 39.3525 4.96239 41.934 12.6422L43.422 17.069C44.1537 19.2459 44.5195 20.3343 45.3087 21.0394C45.5196 21.2278 45.7498 21.3934 45.9956 21.5332C46.9154 22.0566 48.0637 22.0567 50.3602 22.0568L54.6348 22.0569C63.1797 22.0572 67.4521 22.0574 68.6051 24.0658C68.8917 24.5649 69.0671 25.12 69.1195 25.6931C69.3304 27.9993 65.8343 30.4551 58.8421 35.3668L55.8144 37.4936C53.8673 38.8613 52.8938 39.5452 52.4431 40.5381C52.3228 40.8031 52.2318 41.0804 52.1717 41.3651C51.9464 42.4321 52.3253 43.5598 53.0833 45.8152L54.3393 49.5529C56.9739 57.3929 58.2912 61.3129 56.7865 63.0413C56.4119 63.4716 55.9496 63.8168 55.4306 64.0537C53.3459 65.0053 49.9618 62.6284 43.1935 57.8748L39.2026 55.0718C37.3637 53.7803 36.4443 53.1346 35.4111 53.0266C35.1347 52.9978 34.8562 52.9978 34.5798 53.0266C33.5466 53.1346 32.6272 53.7803 30.7883 55.0718L26.7974 57.8748C20.0291 62.6284 16.645 65.0053 14.5603 64.0537C14.0413 63.8168 13.579 63.4716 13.2044 63.0413C11.6997 61.3129 13.017 57.3929 15.6516 49.5529L16.9076 45.8152C17.6656 43.5598 18.0445 42.4321 17.8192 41.3651C17.7591 41.0804 17.6681 40.8031 17.5478 40.5381C17.0971 39.5452 16.1236 38.8613 14.1765 37.4936L11.1488 35.3668C4.1566 30.4551 0.660506 27.9993 0.871385 25.6931C0.923789 25.12 1.09925 24.5649 1.38577 24.0658C2.53877 22.0574 6.81122 22.0572 15.3561 22.0569L19.6307 22.0568C21.9272 22.0567 23.0755 22.0566 23.9953 21.5332C24.2411 21.3934 24.4713 21.2278 24.6822 21.0394C25.4714 20.3343 25.8372 19.2459 26.5689 17.069L28.0569 12.6422Z" fill="#D9D9D9"/>
</svg>
